<?xml version="1.0" encoding="UTF-8" standalone="no"?>
<!-- Created with Inkscape (http://www.inkscape.org/) -->

<svg
   width="11.668125mm"
   height="15.68997mm"
   viewBox="0 0 11.668125 15.68997"
   version="1.1"
   id="svg1"
   inkscape:version="1.4.3 (0d15f75042, 2025-12-25)"
   sodipodi:docname="dome-cropped.svg"
   xmlns:inkscape="http://www.inkscape.org/namespaces/inkscape"
   xmlns:sodipodi="http://sodipodi.sourceforge.net/DTD/sodipodi-0.dtd"
   xmlns:xlink="http://www.w3.org/1999/xlink"
   xmlns="http://www.w3.org/2000/svg"
   xmlns:svg="http://www.w3.org/2000/svg">
  <sodipodi:namedview
     id="namedview1"
     pagecolor="#e8e8e8"
     bordercolor="#666666"
     borderopacity="1.0"
     inkscape:showpageshadow="2"
     inkscape:pageopacity="0.0"
     inkscape:pagecheckerboard="true"
     inkscape:deskcolor="#d1d1d1"
     inkscape:document-units="mm"
     inkscape:zoom="7.9535353"
     inkscape:cx="25.02032"
     inkscape:cy="23.637287"
     inkscape:window-width="1195"
     inkscape:window-height="1297"
     inkscape:window-x="0"
     inkscape:window-y="0"
     inkscape:window-maximized="1"
     inkscape:current-layer="layer1" />
  <defs
     id="defs1" />
  <g
     inkscape:label="Layer 1"
     inkscape:groupmode="layer"
     id="layer1"
     transform="translate(-27.516666,-140.22898)">
    <path
       class="st2"
       d="m 35.692291,152.84979 h -4.656667 c -0.15875,-1.45521 0.370417,-4.7625 1.799167,-6.05896 h 1.058333 c 1.42875,1.29646 1.957917,4.63021 1.799167,6.05896 z m 3.4925,1.05833 v 0 c -0.132292,-1.11125 -0.423334,-2.16958 -0.846667,-3.12208 -0.529167,-1.21709 -1.243542,-2.24896 -2.143125,-3.12209 -0.449792,-0.42333 -0.846667,-0.71437 -1.084792,-0.89958 h -0.820208 c 1.42875,1.29646 1.957917,4.63021 1.799167,6.05896 l 3.095625,1.05833 z m -8.5725,-1.05833 c -0.15875,-1.45521 0.370416,-4.7625 1.799166,-6.05896 h -0.820208 c -0.264583,0.18521 -0.635,0.44979 -1.084792,0.89958 -0.899583,0.87313 -1.640416,1.93146 -2.143124,3.12208 -0.423334,0.9525 -0.687917,1.98438 -0.846667,3.09563 v 0 c 0,0 3.095625,-1.05833 3.095625,-1.05833 z m 3.386666,-10.13355 c 0,0 0.05292,0.0529 0.07938,0.0265 0,0 0,0 0,0 0,0 0,0.0529 0,0.0529 0,0 0,0 0.02646,0 0,-0.0265 0,-0.18521 0,-0.23813 0,0 0,0 0.02646,0.0265 0,0 0,0 0,0 0,0 0,-0.13229 -0.05292,-0.13229 0,0 -0.07938,-0.13229 -0.185208,0 0,0 0,0.0529 0,0.13229 0,0.10584 0,0.0794 0,0.10584 0,0.0265 0.02646,0.0529 0.02646,0.0529 z m 0.687917,3.41313 -0.635,-0.18521 0.07937,-0.34396 c -0.264583,-0.23812 -0.291042,-0.47625 -0.238125,-0.66146 0,0 -0.02646,0 -0.05292,0 -0.02646,0 -0.05292,0 -0.07937,0 0,0 -0.02646,0 -0.05292,0 -0.02646,0 -0.07937,0 -0.105834,0 0,0 0,0 0,0 -0.661458,-0.0529 -1.349375,0.1323 -1.455208,0.37042 v 0.42333 c 0,0 0.396875,-0.0794 0.396875,-0.0794 v 0 l 0.07937,0.34396 -0.661458,0.18521 0.15875,0.42333 h 2.354791 l 0.15875,-0.39688 z m -2.328333,-3.12208 c 0,0.0529 0.185208,1.27 0.291041,1.64041 0.291042,-0.0794 0.661459,-0.0794 0.9525,-0.0529 -0.185208,-0.21167 -0.3175,-0.66146 -0.3175,-0.66146 0,-0.29104 0,-0.52917 -0.05292,-0.74084 -0.05292,-0.1852 -0.02646,-1.37583 0,-1.48166 0.07938,-0.15875 0.3175,-0.66146 0.396875,-0.68792 0.132291,-0.0529 0.185208,0 0.211666,0 -0.02646,-0.0529 -0.07937,-0.10583 -0.105833,-0.10583 -0.02646,0 -0.185208,-0.10584 -0.211667,-0.13229 0,0 0,-0.0794 0,-0.15875 0,-0.0794 0,-0.23813 0,-0.23813 0,0 0,0 0,-0.0265 0,0 0,0 0,0 0,0 -0.02646,0 -0.02646,0 v 0.15875 c 0,0.15875 -0.132292,0.15875 -0.15875,0.13229 0,0 0,-0.13229 0,-0.13229 v 0 c 0,0 0,-0.10583 0,-0.13229 0,-0.0265 0.02646,0 0.02646,0 0,0 0.02646,0.0529 0.02646,0.0529 0,0 0.05292,0 0.05292,0 0,0 0,0 0,-0.0265 0,0 0,0 0,-0.0265 0,0 0,0 0,-0.0794 0,-0.0794 0,-0.0529 -0.02646,-0.0794 0,0 0,0 0,0 0,0 0,0 0,0 0,0 0,0 0,0 0,0 -0.02646,0 -0.05292,0 -0.02646,0 0,0 0,0 0,0 0,0 0,0 0,0 0,0 0,0 v 0 c 0,0 0,0 0,0 -0.05292,0 -0.132291,0.0529 -0.15875,0.13229 -0.05292,0.13229 -0.05292,0.37042 -0.07937,0.37042 0,0 -0.02646,0.15875 -0.05292,0.15875 -0.370417,0.0529 -0.423334,0.34396 -0.449792,0.66146 0,0 0,0 0,0 0,0 0,0 0,0 0,0 0,0 0,0 0,0 0,0 0,0 0,0 0,0 0,0 0,0 0,0 0,0 0,0 0,0 0,0 0,0 0,0 0,0 0,0 0,0 0,0 0,0 -0.02646,0 -0.05292,0 0,0 0,0 0,0 0,0 -0.05292,0 -0.05292,0 0,0 0,0 0,0 0,0 -0.02646,0 -0.05292,0 0,0 0,0 0,0 0,0 -0.02646,0 -0.02646,0 0,0 0,0 -0.02646,0 0,0 0,0 0,0 -0.05292,0 -0.105833,0.0794 -0.132291,0.15875 0,0 0,0 0,0.0265 0.02646,0.0265 0.105833,0.0794 0.132291,0.10583 0,0 0,0 0,0 0,0 0.07937,0 0.105834,0 0,0 0.07937,-0.0529 0.07937,-0.0529 0,0 0.07937,1.19063 0.05292,1.24354 z m 1.5875,-1.05834 c 0,0 0,-0.0265 0.02646,-0.0794 0,-0.0529 -0.05292,-0.18521 -0.05292,-0.18521 0,0 0,-0.21167 0,-0.26458 0,-0.0529 -0.02646,-0.18521 -0.02646,-0.18521 -0.02646,-0.10584 -0.05292,0 -0.05292,0 0,0.26458 -0.15875,0.44979 -0.15875,0.44979 0,0 0.07937,0.23812 0.05292,0.37042 0,0.0794 0,0.13229 0,0.42333 0,0.29104 0,0.23812 0,0.34396 0,0.0265 -0.05292,0 0,0.37041 0.05292,0.39688 0.07937,0.7673 0.05292,0.82021 0,0.0265 0,0.47625 0,0.47625 0,0 0,0.0794 0,0.13229 0.02646,0 0.05292,0 0.105833,0 0.02646,-0.13229 0.132292,-0.5027 0.132292,-0.60854 0,-0.13229 0.05292,-0.15875 0.07937,-0.18521 0,0 0,-0.26458 0.05292,-0.52916 l 0.05292,-0.9525 v 0 c 0,0 0,-0.0265 0,-0.0529 0,0 0,0 0,0 0,0 -0.05292,-0.0794 -0.07938,-0.0794 0,0 0,0.10583 -0.02646,0.0794 -0.02646,0 -0.132292,-0.0794 -0.132292,-0.0794 -0.02646,-0.0265 -0.02646,-0.23813 0,-0.23813 z m -6.429375,12.99104 3.095625,-1.05833 h 5.476875 c 0,0 3.095625,1.05833 3.095625,1.05833 v -0.60854 l -3.095625,-1.05833 h -5.476875 c 0,0 -3.095625,1.05833 -3.095625,1.05833 z m 0,0.97896 h 11.668125 v -0.60854 l -3.095625,-1.05833 h -5.476875 c 0,0 -3.095625,1.05833 -3.095625,1.05833 z"
       id="path16"
       style="fill:#ac8f41;stroke-width:0.264583" />
    <use
       x="0"
       y="0"
       xlink:href="#path16"
       id="use1" />
    <use
       x="0"
       y="0"
       xlink:href="#use1"
       id="use2" />
  </g>
</svg>
